<?xml version="1.0" standalone="no"?>
<!DOCTYPE svg PUBLIC "-//W3C//DTD SVG 20010904//EN"
 "http://www.w3.org/TR/2001/REC-SVG-20010904/DTD/svg10.dtd">
<svg version="1.0" xmlns="http://www.w3.org/2000/svg"
 width="681.000000pt" height="545.000000pt" viewBox="0 0 681.000000 545.000000"
 preserveAspectRatio="xMidYMid meet">

<g transform="translate(0.000000,545.000000) scale(0.100000,-0.100000)"
fill="#000000" stroke="none">
<path d="M0 2725 l0 -2725 3405 0 3405 0 0 2725 0 2725 -3405 0 -3405 0 0
-2725z m3368 1375 c7 -31 12 -35 44 -38 l36 -3 16 73 c9 40 17 91 18 113 l3
40 13 -54 c9 -38 11 -90 6 -167 -8 -131 3 -177 67 -283 41 -68 52 -134 27
-159 -22 -22 -67 -14 -97 19 l-28 30 -6 -47 c-7 -62 12 -114 67 -185 65 -84
70 -96 71 -182 0 -74 -2 -80 -28 -103 -46 -39 -91 -30 -106 22 l-8 29 -12 -43
c-14 -50 -5 -88 38 -162 22 -38 26 -42 29 -23 6 38 26 47 78 34 45 -12 74 -8
40 5 -27 10 -18 27 12 21 53 -11 102 9 156 62 59 58 102 73 141 47 34 -23 31
-4 -6 39 -23 25 -26 33 -13 28 62 -22 104 -79 104 -141 0 -39 -46 -127 -73
-139 -15 -7 -52 -7 -117 0 -107 12 -158 5 -192 -23 l-23 -20 30 7 30 6 -30
-25 -30 -26 30 5 30 6 -27 -26 c-31 -29 -36 -42 -13 -33 17 6 21 -9 5 -19 -5
-3 -10 -13 -10 -21 0 -8 5 -12 10 -9 6 4 10 -6 10 -23 0 -35 -29 -63 -95 -94
-73 -33 -228 -33 -302 0 -59 27 -88 55 -97 96 -6 23 -4 27 8 23 18 -7 23 18 6
28 -5 3 -10 11 -10 16 0 6 5 7 10 4 18 -11 11 8 -12 33 l-23 25 23 -6 c12 -3
22 -2 22 3 0 4 -10 15 -22 24 l-23 17 29 -6 c49 -10 14 20 -41 35 -36 11 -68
11 -142 3 -115 -13 -139 -4 -170 60 -37 75 -23 150 35 196 40 32 48 25 20 -16
-14 -20 -24 -38 -22 -40 2 -2 17 4 33 13 40 23 75 13 121 -37 50 -55 86 -71
151 -71 l55 0 -23 -19 c-27 -22 -17 -23 45 -8 50 13 71 3 76 -34 5 -37 68 93
68 141 0 66 -9 78 -31 43 -25 -41 -61 -41 -101 0 -30 30 -31 31 -25 111 5 76
7 83 51 138 66 85 86 131 86 192 0 29 -5 60 -10 68 -8 13 -10 13 -10 -2 0 -25
-40 -58 -71 -58 -62 0 -70 73 -19 160 72 121 75 132 72 285 -1 86 2 159 10
190 l12 50 8 -80 c4 -44 11 -96 16 -115z m496 62 c52 -4 57 -2 84 27 l29 32
16 -58 c8 -32 18 -78 22 -103 3 -25 9 -58 12 -74 5 -28 3 -28 -61 27 -36 31
-109 82 -161 113 -53 31 -115 74 -138 95 l-42 38 92 -46 c65 -33 107 -48 147
-51z m-709 52 c-16 -13 -79 -55 -139 -92 -60 -37 -133 -89 -162 -116 -30 -26
-54 -42 -54 -35 0 30 21 147 36 197 l15 53 30 -32 c27 -29 33 -31 85 -27 38 3
78 17 132 44 83 44 104 46 57 8z m-11 -155 c-8 -46 -13 -44 64 -23 19 5 22 3
22 -20 0 -60 -69 -146 -117 -146 -63 0 -56 99 15 208 20 31 23 28 16 -19z
m612 -97 c15 -81 -35 -117 -93 -68 -31 26 -55 69 -67 120 -8 31 -14 30 70 10
26 -7 26 -6 20 37 l-7 44 35 -54 c20 -30 39 -70 42 -89z m-781 -59 c-23 -58
-28 -92 -29 -225 -2 -156 -9 -183 -44 -162 -9 6 -18 22 -20 35 -6 46 -11 53
-28 38 -8 -7 -24 -29 -34 -48 l-19 -36 -1 66 c0 75 21 155 57 218 45 77 141
169 118 114z m965 -71 c50 -70 80 -150 87 -233 6 -73 -7 -97 -27 -48 -7 16
-21 34 -31 40 -17 8 -19 6 -19 -19 0 -41 -24 -70 -47 -56 -16 10 -18 28 -19
150 -1 122 -9 184 -31 241 -12 32 47 -19 87 -75z m238 -61 c29 -16 37 -14 71
15 l31 26 0 -25 c0 -39 -45 -205 -78 -286 l-29 -75 -6 105 c-3 60 -16 147 -30
204 l-25 100 22 -26 c13 -15 32 -32 44 -38z m-1487 -37 c-25 -101 -31 -143
-33 -227 -1 -37 -5 -64 -9 -60 -24 27 -99 278 -99 333 l0 33 26 -27 c34 -34
56 -33 96 3 18 16 34 28 36 26 2 -1 -6 -38 -17 -81z m405 -114 c-7 -56 6 -121
29 -140 8 -7 26 -12 40 -12 14 0 25 -2 25 -5 0 -2 -13 -30 -30 -63 -31 -62
-40 -133 -20 -170 17 -32 -100 40 -121 75 -11 17 -19 48 -19 70 1 32 3 37 11
23 14 -25 48 -22 58 5 4 12 5 49 1 82 -8 73 -5 118 10 156 18 43 23 35 16 -21z
m668 -33 c4 -21 4 -42 2 -46 -11 -17 -14 -114 -6 -137 11 -28 44 -32 59 -6 8
14 10 10 11 -21 0 -45 -28 -100 -48 -92 -7 2 -11 1 -7 -4 3 -5 -17 -23 -44
-40 l-50 -30 11 30 c15 43 5 98 -31 174 -27 58 -28 64 -10 54 16 -8 26 -7 44
5 28 19 38 61 33 140 -3 54 -2 55 14 34 9 -12 19 -39 22 -61z m-600 -467 c20
-20 20 -20 1 -20 -24 0 -85 36 -85 49 0 15 62 -6 84 -29z m586 30 c0 -16 -62
-50 -90 -50 l-25 0 25 20 c14 11 39 24 55 29 17 5 31 10 33 10 1 1 2 -4 2 -9z
m-683 -432 c38 -41 46 -56 84 -164 43 -123 67 -156 131 -185 43 -19 69 -24
138 -23 74 0 92 4 136 28 58 31 79 62 120 176 36 102 69 166 96 184 12 9 23
14 25 12 2 -1 -5 -23 -16 -47 -32 -72 -73 -185 -63 -174 5 6 18 23 30 39 29
38 28 25 -8 -83 -35 -107 -76 -175 -130 -213 -55 -40 -149 -62 -231 -54 -157
14 -233 85 -293 270 -31 95 -33 123 -5 77 11 -18 22 -31 25 -29 6 7 -51 162
-72 193 -23 35 -4 31 33 -7z m348 -151 c71 1 109 9 178 38 30 12 10 -18 -27
-42 -79 -51 -229 -50 -308 2 -55 37 -47 47 20 23 40 -15 80 -21 137 -21z m0
-148 c61 0 119 3 129 7 13 5 17 4 13 -3 -25 -40 -244 -42 -281 -2 -8 9 -6 10
9 5 11 -4 70 -7 130 -7z m-2237 -573 c31 -17 105 -91 121 -123 6 -13 11 -76
11 -154 0 -152 -8 -174 -87 -234 -45 -34 -47 -35 -144 -35 l-98 0 -3 208 c-3
195 -4 209 -26 243 l-22 37 50 32 c44 28 54 31 73 21 18 -10 28 -9 52 3 37 19
39 19 73 2z m508 -15 c22 -15 52 -43 68 -62 24 -28 27 -39 23 -77 -3 -29 -14
-53 -32 -72 l-28 -29 31 -35 c31 -36 36 -56 48 -183 l6 -73 -64 0 -65 0 -6 91
c-8 112 -17 129 -62 129 l-35 0 0 -110 0 -110 -54 0 -55 0 -3 208 c-3 192 -5
210 -25 244 l-22 37 39 31 c41 33 74 38 87 15 8 -13 14 -12 48 5 51 26 55 25
101 -9z m407 18 c33 -18 77 -57 109 -96 28 -35 28 -37 28 -175 0 -161 -4 -173
-81 -242 -69 -62 -99 -62 -168 0 -76 69 -81 82 -81 233 0 71 4 141 9 154 16
41 124 137 154 137 5 0 18 -5 30 -11z m395 -8 c47 24 74 18 122 -24 66 -59 80
-85 80 -153 0 -39 -6 -77 -15 -94 -23 -44 -111 -110 -146 -110 -28 0 -29 1
-29 50 0 47 2 50 35 64 38 16 48 40 43 101 -4 51 -45 84 -83 67 l-25 -12 0
-215 0 -216 -57 3 -58 3 -3 209 c-2 187 -4 213 -22 243 l-19 33 46 35 46 35
22 -20 c21 -20 21 -20 63 1z m542 -30 c72 -61 81 -84 81 -203 0 -208 6 -184
-64 -255 -83 -82 -108 -84 -186 -16 -73 64 -81 87 -81 238 0 143 5 158 72 221
79 76 103 78 178 15z m305 -13 c13 -32 19 -84 23 -200 4 -136 7 -160 24 -178
15 -16 23 -18 38 -10 31 17 40 75 40 263 l0 177 55 0 55 0 0 -205 c0 -235 0
-236 -81 -309 -69 -62 -99 -62 -168 0 -28 26 -57 56 -64 68 -7 13 -14 80 -17
171 -4 121 -8 156 -22 178 -25 37 -23 42 25 75 51 36 67 30 92 -30z m1435 12
l0 -50 -74 0 c-88 0 -98 -9 -94 -77 l3 -48 68 -3 68 -3 -3 -47 -3 -47 -67 -3
-68 -3 0 -64 0 -65 63 -1 c120 -2 112 2 115 -51 l3 -48 -151 0 -150 0 2 242 3
242 54 38 c53 37 57 38 143 38 l88 0 0 -50z m328 36 c38 -20 109 -95 121 -129
7 -16 11 -110 11 -223 l0 -194 -60 0 -60 0 0 55 0 55 -50 0 -50 0 0 -55 0 -55
-55 0 -55 0 0 205 c0 158 3 212 14 233 24 45 114 122 144 122 7 0 25 -6 40
-14z m498 -17 c27 -25 36 -24 80 6 20 14 42 25 49 25 17 0 113 -77 125 -101 8
-14 14 -281 10 -441 0 -15 -9 -18 -55 -18 l-55 0 0 208 c0 196 -1 210 -20 227
-16 15 -22 15 -35 5 -13 -10 -15 -47 -15 -226 l0 -214 -60 0 -60 0 0 207 c0
177 -2 209 -16 224 -13 14 -21 16 -35 8 -18 -9 -19 -25 -19 -224 l0 -215 -60
0 -60 0 0 208 c0 188 -2 212 -20 247 -11 21 -19 39 -17 40 1 1 18 14 38 28 41
30 61 34 79 12 10 -12 17 -12 48 5 40 22 65 19 98 -11z m-1606 -29 l0 -50 -50
0 -50 0 0 -225 0 -225 -60 0 -60 0 0 224 0 225 -47 3 c-46 3 -48 4 -51 36 -6
63 -8 62 163 62 l155 0 0 -50z m390 0 l0 -50 -50 0 -50 0 0 -225 0 -225 -60 0
-60 0 0 224 0 225 -47 3 c-46 3 -48 4 -51 36 -6 63 -8 62 163 62 l155 0 0 -50z
m-2540 -700 c14 0 70 -60 70 -76 0 -7 -12 -21 -26 -31 -26 -17 -27 -16 -46 10
-23 31 -48 35 -48 8 0 -13 21 -33 58 -58 81 -54 85 -109 10 -163 -48 -35 -67
-33 -115 13 -40 37 -41 51 -7 74 26 17 27 16 46 -10 25 -34 48 -35 48 -3 0 15
-7 27 -19 31 -10 3 -37 19 -60 35 -34 25 -41 36 -41 63 0 18 7 43 16 56 21 29
75 62 92 56 8 -3 17 -5 22 -5z m700 -26 l41 -37 -3 -131 -3 -131 -35 0 -35 0
-5 125 c-4 102 -8 125 -20 125 -12 0 -16 -23 -20 -125 l-5 -125 -35 0 -35 0
-5 130 c-3 72 -9 138 -14 147 -10 22 34 52 63 43 11 -3 29 -2 38 4 26 15 29
14 73 -25z m364 17 c17 -11 39 -33 49 -50 17 -29 17 -30 -10 -51 l-27 -21 -18
23 c-10 13 -18 26 -18 31 0 14 -28 7 -34 -9 -3 -9 -6 -44 -6 -79 0 -35 3 -70
6 -79 9 -24 33 -19 46 9 13 28 25 31 51 11 35 -27 8 -81 -54 -105 -31 -11 -78
12 -103 52 -21 31 -30 104 -21 164 5 38 15 56 46 85 46 44 51 45 93 19z m426
-15 c0 -34 -1 -35 -47 -38 -44 -3 -48 -5 -51 -30 -3 -24 0 -27 35 -30 35 -3
38 -6 41 -35 3 -32 2 -33 -37 -33 -40 0 -41 -1 -41 -34 l0 -35 53 -3 c50 -3
52 -4 52 -33 l0 -30 -87 -3 -88 -3 0 148 0 148 33 22 c22 15 48 22 85 22 l52
1 0 -34z m-1155 -141 l0 -160 -35 0 -35 0 -3 163 -3 163 38 -3 38 -3 0 -160z
m1776 116 c31 -31 39 -46 39 -75 0 -31 -6 -40 -42 -66 -97 -70 -99 -78 -20
-82 53 -3 57 -5 57 -28 0 -25 -1 -25 -90 -25 l-90 0 -3 48 c-3 43 0 51 30 80
18 18 46 41 62 52 26 19 28 23 16 45 l-13 24 -24 -28 c-22 -26 -27 -27 -49
-16 -33 18 -30 36 10 76 44 44 69 43 117 -5z m376 5 c36 -33 38 -37 41 -110 5
-89 -6 -124 -51 -157 -41 -30 -62 -27 -103 12 -34 33 -34 33 -34 127 l0 95 36
33 c45 43 65 43 111 0z m373 -3 c37 -32 41 -40 38 -77 -3 -37 -8 -44 -55 -76
-28 -19 -54 -43 -56 -52 -4 -14 4 -18 52 -20 52 -3 56 -5 56 -28 0 -25 -1 -25
-90 -25 l-90 0 -3 48 c-3 43 0 51 30 80 18 18 46 41 62 52 27 19 28 23 16 45
l-13 24 -23 -29 c-22 -28 -23 -28 -48 -11 -14 9 -26 21 -26 27 0 19 67 79 89
79 12 0 39 -16 61 -37z m373 7 c65 -57 58 -113 -19 -164 -71 -48 -71 -66 0
-66 50 0 54 -2 59 -26 6 -33 -2 -35 -104 -32 -81 3 -84 4 -87 28 -8 51 16 96
68 131 50 34 58 51 40 79 -8 13 -14 10 -33 -14 -20 -25 -26 -27 -45 -17 -32
17 -27 44 13 80 44 39 65 39 108 1z"/>
<path d="M3353 2934 c-44 -65 -73 -125 -73 -155 0 -23 29 -39 69 -39 27 0 31
5 41 40 6 22 9 79 8 128 l-3 87 -42 -61z"/>
<path d="M3429 2950 c-2 -69 2 -148 10 -178 9 -33 50 -41 88 -17 20 13 23 22
18 43 -8 32 -66 139 -94 173 l-20 24 -2 -45z"/>
<path d="M1103 1733 c-10 -3 -13 -47 -13 -168 0 -158 1 -164 21 -170 34 -11
72 24 82 76 13 68 2 214 -17 244 -16 24 -43 31 -73 18z"/>
<path d="M1583 1743 c-21 -8 -17 -112 4 -120 19 -7 63 38 63 65 0 40 -35 69
-67 55z"/>
<path d="M2033 1713 c-14 -21 -18 -49 -18 -132 0 -121 7 -156 35 -171 49 -26
81 82 65 228 -10 97 -46 130 -82 75z"/>
<path d="M2916 1718 c-12 -17 -16 -50 -16 -145 0 -112 2 -124 23 -148 l23 -27
24 20 c24 20 25 24 25 150 0 114 -2 133 -19 151 -24 27 -41 27 -60 -1z"/>
<path d="M5030 1713 c-18 -23 -20 -38 -18 -112 l3 -86 45 0 45 0 3 90 c2 80 0
93 -18 113 -27 28 -34 28 -60 -5z"/>
<path d="M4256 1004 c-11 -28 -7 -152 6 -160 19 -12 38 27 38 77 0 75 -27 127
-44 83z"/>
</g>
</svg>
